<svg width="85" height="77" viewBox="0 0 85 77" fill="none" xmlns="http://www.w3.org/2000/svg">
<path d="M8.83333 9.04167V67.9583H76.1667V9.04167H8.83333ZM4.625 0.625H80.375C81.4911 0.625 82.5615 1.06838 83.3507 1.85759C84.14 2.64681 84.5833 3.71721 84.5833 4.83333V72.1667C84.5833 73.2828 84.14 74.3532 83.3507 75.1424C82.5615 75.9316 81.4911 76.375 80.375 76.375H4.625C3.50888 76.375 2.43848 75.9316 1.64926 75.1424C0.860044 74.3532 0.416668 73.2828 0.416668 72.1667V4.83333C0.416668 3.71721 0.860044 2.64681 1.64926 1.85759C2.43848 1.06838 3.50888 0.625 4.625 0.625ZM54.2539 29.2122L46.7083 21.6667H67.75V42.7083L60.2045 35.1628L43.9435 51.4238L35.0176 42.4979L23.1122 54.3991L17.1616 48.4485L35.0176 30.5925L43.9435 39.5226L54.2539 29.2122Z" fill="#575757"/>
</svg>
