<svg width="85" height="77" viewBox="0 0 85 77" fill="none" xmlns="http://www.w3.org/2000/svg">
<path d="M80.375 76.375H4.625C3.50888 76.375 2.43848 75.9316 1.64926 75.1424C0.860044 74.3532 0.416668 73.2828 0.416668 72.1667V40.5495C0.416602 39.9481 0.545405 39.3538 0.794398 38.8064C1.04339 38.2591 1.40679 37.7714 1.86013 37.3764L17.25 23.956V4.83333C17.25 3.71721 17.6934 2.64681 18.4826 1.85759C19.2718 1.06838 20.3422 0.625 21.4583 0.625H80.375C81.4911 0.625 82.5615 1.06838 83.3507 1.85759C84.14 2.64681 84.5833 3.71721 84.5833 4.83333V72.1667C84.5833 73.2828 84.14 74.3532 83.3507 75.1424C82.5615 75.9316 81.4911 76.375 80.375 76.375ZM29.875 67.9583H42.5V42.4643L25.6667 27.7856L8.83333 42.4643V67.9583H21.4583V51.125H29.875V67.9583ZM50.9167 67.9583H76.1667V9.04167H25.6667V17.9928C26.6514 17.9928 27.6404 18.3379 28.4315 19.0323L49.4732 37.3764C49.9265 37.7714 50.2899 38.2591 50.5389 38.8064C50.7879 39.3538 50.9167 39.9481 50.9167 40.5495V67.9583ZM59.3333 34.2917H67.75V42.7083H59.3333V34.2917ZM59.3333 51.125H67.75V59.5417H59.3333V51.125ZM59.3333 17.4583H67.75V25.875H59.3333V17.4583ZM42.5 17.4583H50.9167V25.875H42.5V17.4583Z" fill="#575757"/>
</svg>
