<svg width="42" height="10" viewBox="0 0 42 10" fill="none" xmlns="http://www.w3.org/2000/svg">
<path d="M0.864 0.599999V9H4.356C5.796 9 6.84 8.148 6.84 6.732C6.84 5.748 6.228 5.088 5.424 4.86V4.716C6.264 4.5 6.816 3.84 6.816 2.856C6.816 1.416 5.784 0.599999 4.332 0.599999H0.864ZM2.064 1.704H4.224C5.076 1.704 5.664 2.184 5.664 2.952C5.664 3.756 5.112 4.236 4.248 4.236H2.064V1.704ZM2.064 5.34H4.272C5.136 5.34 5.688 5.832 5.688 6.636C5.688 7.416 5.1 7.896 4.248 7.896H2.064V5.34ZM14.1631 9V3.12H13.0351V6.192C13.0351 7.416 12.3511 8.112 11.2591 8.112C10.2991 8.112 9.74709 7.584 9.74709 6.564V3.12H8.61909V6.66C8.61909 8.28 9.67509 9.096 10.9111 9.096C12.0751 9.096 12.6151 8.556 12.8911 8.004H13.0591V9H14.1631ZM16.1995 4.692C16.1995 5.808 17.0755 6.24 18.3955 6.432L18.8875 6.504C19.5235 6.6 20.2795 6.648 20.2795 7.26C20.2795 7.836 19.6795 8.208 18.8395 8.208C17.8795 8.208 17.1235 7.668 16.7515 6.78L15.7435 7.32C16.1995 8.184 17.1355 9.168 18.8035 9.168C20.3155 9.168 21.3955 8.4 21.3955 7.224C21.3955 6 20.3515 5.676 19.0195 5.484L18.5275 5.412C17.8915 5.316 17.3155 5.256 17.3155 4.68C17.3155 4.176 17.8075 3.888 18.4675 3.888C19.1635 3.888 19.8715 4.212 20.5195 5.052L21.3595 4.452C20.4355 3.42 19.6435 2.952 18.4435 2.952C17.2435 2.952 16.1995 3.576 16.1995 4.692ZM22.7437 6.06C22.7437 7.86 24.0397 9.168 25.8157 9.168C27.5557 9.168 28.4077 8.004 28.6717 6.888L27.5557 6.672C27.3997 7.428 26.9437 8.136 25.8157 8.136C24.6637 8.136 23.8717 7.308 23.8717 6.06C23.8717 4.812 24.6637 3.984 25.7917 3.984C26.8357 3.984 27.4477 4.632 27.5437 5.46L28.6477 5.232C28.4077 3.924 27.3757 2.952 25.7917 2.952C24.0397 2.952 22.7437 4.26 22.7437 6.06ZM30.1657 4.668L31.1377 5.112C31.4137 4.428 31.9777 3.96 32.9377 3.96C33.8977 3.96 34.4617 4.44 34.4617 5.244V5.4L32.2897 5.604C30.7777 5.748 30.0457 6.324 30.0457 7.392C30.0457 8.448 30.8977 9.168 32.2177 9.168C33.4297 9.168 34.0417 8.604 34.2937 8.076H34.4617V9H35.5657V5.292C35.5657 3.876 34.5457 2.952 32.9617 2.952C31.5217 2.952 30.5857 3.756 30.1657 4.668ZM31.1857 7.344C31.1857 6.744 31.7257 6.54 32.4097 6.48L34.4617 6.288V6.384C34.4617 7.404 33.7897 8.232 32.4097 8.232C31.6297 8.232 31.1857 7.896 31.1857 7.344ZM38.738 3.12H37.658V9H38.786V5.568C38.786 4.68 39.242 4.2 40.082 4.2H41.114V3.096H40.442C39.59 3.096 39.11 3.456 38.906 4.08H38.738V3.12Z" fill="#0069CB"/>
</svg>
