<svg width="58" height="12" viewBox="0 0 58 12" fill="none" xmlns="http://www.w3.org/2000/svg">
<path d="M0.576 3.864V5.736C0.576 7.92 1.8 9.168 3.864 9.168C5.88 9.168 7.008 7.968 7.008 6.096V5.928H5.808V6.096C5.808 7.272 5.208 8.064 3.864 8.064C2.52 8.064 1.776 7.248 1.776 5.784V3.816C1.776 2.352 2.52 1.536 3.864 1.536C5.208 1.536 5.808 2.34 5.808 3.504V3.672H7.008V3.456C7.008 1.656 5.88 0.431999 3.864 0.431999C1.8 0.431999 0.576 1.68 0.576 3.864ZM8.44772 6.06C8.44772 7.884 9.74372 9.168 11.4717 9.168C13.1997 9.168 14.4957 7.884 14.4957 6.06C14.4957 4.236 13.1997 2.952 11.4717 2.952C9.74372 2.952 8.44772 4.236 8.44772 6.06ZM9.57572 6.06C9.57572 4.764 10.3437 3.984 11.4717 3.984C12.5997 3.984 13.3677 4.764 13.3677 6.06C13.3677 7.356 12.5997 8.136 11.4717 8.136C10.3437 8.136 9.57572 7.356 9.57572 6.06ZM16.2727 3.12V9H17.4007V5.328C17.4007 4.44 17.9887 3.984 18.7447 3.984C19.4287 3.984 19.8967 4.368 19.8967 5.052V9H21.0247V5.328C21.0247 4.44 21.5767 3.984 22.3087 3.984C23.0047 3.984 23.5207 4.368 23.5207 5.052V9H24.6487V4.98C24.6487 3.768 23.7007 3.024 22.6567 3.024C21.6967 3.024 21.1927 3.516 20.9527 4.008H20.7847C20.4967 3.468 20.0047 3.024 19.1527 3.024C18.3727 3.024 17.8447 3.384 17.5447 3.888H17.3767V3.12H16.2727ZM26.737 11.4H27.865V8.076H28.009C28.333 8.616 28.873 9.168 30.025 9.168C31.573 9.168 32.785 7.884 32.785 6.06C32.785 4.236 31.573 2.952 30.025 2.952C28.873 2.952 28.333 3.504 28.009 4.044H27.841V3.12H26.737V11.4ZM29.737 8.16C28.585 8.16 27.865 7.356 27.865 6.06C27.865 4.764 28.585 3.96 29.737 3.96C30.865 3.96 31.657 4.716 31.657 6.06C31.657 7.404 30.865 8.16 29.737 8.16ZM34.3258 4.668L35.2978 5.112C35.5738 4.428 36.1378 3.96 37.0978 3.96C38.0578 3.96 38.6218 4.44 38.6218 5.244V5.4L36.4498 5.604C34.9378 5.748 34.2058 6.324 34.2058 7.392C34.2058 8.448 35.0578 9.168 36.3778 9.168C37.5898 9.168 38.2018 8.604 38.4538 8.076H38.6218V9H39.7258V5.292C39.7258 3.876 38.7058 2.952 37.1218 2.952C35.6818 2.952 34.7458 3.756 34.3258 4.668ZM35.3458 7.344C35.3458 6.744 35.8858 6.54 36.5698 6.48L38.6218 6.288V6.384C38.6218 7.404 37.9498 8.232 36.5698 8.232C35.7898 8.232 35.3458 7.896 35.3458 7.344ZM42.8981 3.12H41.8181V9H42.9461V5.568C42.9461 4.68 43.4021 4.2 44.2421 4.2H45.2741V3.096H44.6021C43.7501 3.096 43.2701 3.456 43.0661 4.08H42.8981V3.12ZM46.5593 4.668L47.5313 5.112C47.8073 4.428 48.3713 3.96 49.3313 3.96C50.2913 3.96 50.8553 4.44 50.8553 5.244V5.4L48.6833 5.604C47.1713 5.748 46.4393 6.324 46.4393 7.392C46.4393 8.448 47.2913 9.168 48.6113 9.168C49.8233 9.168 50.4353 8.604 50.6873 8.076H50.8553V9H51.9593V5.292C51.9593 3.876 50.9393 2.952 49.3553 2.952C47.9153 2.952 46.9793 3.756 46.5593 4.668ZM47.5793 7.344C47.5793 6.744 48.1193 6.54 48.8033 6.48L50.8553 6.288V6.384C50.8553 7.404 50.1833 8.232 48.8033 8.232C48.0233 8.232 47.5793 7.896 47.5793 7.344ZM55.1316 3.12H54.0516V9H55.1796V5.568C55.1796 4.68 55.6356 4.2 56.4756 4.2H57.5076V3.096H56.8356C55.9836 3.096 55.5036 3.456 55.2996 4.08H55.1316V3.12Z" fill="#0069CB"/>
</svg>
