<svg width="36" height="10" viewBox="0 0 36 10" fill="none" xmlns="http://www.w3.org/2000/svg">
<path d="M0.864 0.599999V9H2.064V5.34H5.88V4.236H2.064V1.704H6.096V0.599999H0.864ZM7.33528 1.32C7.33528 1.824 7.74328 2.208 8.24728 2.208C8.75128 2.208 9.15928 1.824 9.15928 1.32C9.15928 0.816 8.75128 0.431999 8.24728 0.431999C7.74328 0.431999 7.33528 0.816 7.33528 1.32ZM8.81128 3.12H7.68328V9H8.81128V3.12ZM12.1038 0.599999H10.9758V9H12.1038V0.599999ZM13.5963 3.12V4.104H15.2283V7.992C15.2283 8.592 15.6363 9 16.2123 9H17.7483V8.016H16.6683C16.4523 8.016 16.3563 7.92 16.3563 7.68V4.104H18.0843V3.12H16.3563V1.08H15.2283V3.12H13.5963ZM20.8205 3.12H19.7405V9H20.8685V5.568C20.8685 4.68 21.3245 4.2 22.1645 4.2H23.1965V3.096H22.5245C21.6725 3.096 21.1925 3.456 20.9885 4.08H20.8205V3.12ZM24.4816 4.668L25.4536 5.112C25.7296 4.428 26.2936 3.96 27.2536 3.96C28.2136 3.96 28.7776 4.44 28.7776 5.244V5.4L26.6056 5.604C25.0936 5.748 24.3616 6.324 24.3616 7.392C24.3616 8.448 25.2136 9.168 26.5336 9.168C27.7456 9.168 28.3576 8.604 28.6096 8.076H28.7776V9H29.8816V5.292C29.8816 3.876 28.8616 2.952 27.2776 2.952C25.8376 2.952 24.9016 3.756 24.4816 4.668ZM25.5016 7.344C25.5016 6.744 26.0416 6.54 26.7256 6.48L28.7776 6.288V6.384C28.7776 7.404 28.1056 8.232 26.7256 8.232C25.9456 8.232 25.5016 7.896 25.5016 7.344ZM33.0539 3.12H31.9739V9H33.1019V5.568C33.1019 4.68 33.5579 4.2 34.3979 4.2H35.4299V3.096H34.7579C33.9059 3.096 33.4259 3.456 33.2219 4.08H33.0539V3.12Z" fill="#0069CB"/>
</svg>
